<svg width="31" height="31" viewBox="0 0 31 31" xmlns="http://www.w3.org/2000/svg">
<path d="M19.1813 5.10209V10.0104H17.2438V5.10209C17.2438 4.75334 16.9338 4.58542 16.7272 4.58542C16.6626 4.58542 16.598 4.59834 16.5334 4.62417L6.2905 8.48625C5.60591 8.74459 5.16675 9.39042 5.16675 10.1267V10.9921C3.99133 11.8704 3.22925 13.2783 3.22925 14.8671V10.1267C3.22925 8.58958 4.17216 7.22042 5.60591 6.67792L15.8617 2.80292C16.1459 2.69959 16.443 2.64792 16.7272 2.64792C18.0188 2.64792 19.1813 3.69417 19.1813 5.10209Z"/>
<path d="M27.7708 18.7292V20.0208C27.7708 20.3696 27.4995 20.6537 27.1379 20.6667H25.252C24.5675 20.6667 23.9475 20.1629 23.8958 19.4912C23.857 19.0908 24.012 18.7162 24.2704 18.4579C24.5029 18.2125 24.8258 18.0833 25.1745 18.0833H27.125C27.4995 18.0962 27.7708 18.3804 27.7708 18.7292Z"/>
<path d="M25.1617 16.7271H26.4792C27.1897 16.7271 27.7709 16.1458 27.7709 15.4354V14.8671C27.7709 12.1933 25.588 10.0104 22.9142 10.0104H8.08592C6.988 10.0104 5.9805 10.3721 5.16675 10.9921C3.99133 11.8704 3.22925 13.2783 3.22925 14.8671V23.56C3.22925 26.2338 5.41216 28.4167 8.08592 28.4167H22.9142C25.588 28.4167 27.7709 26.2338 27.7709 23.56V23.3146C27.7709 22.6042 27.1897 22.0229 26.4792 22.0229H25.3555C24.1155 22.0229 22.9272 21.2608 22.6042 20.0596C22.333 19.0779 22.6559 18.135 23.3017 17.5021C23.7797 17.0113 24.4384 16.7271 25.1617 16.7271ZM18.0834 16.4688H9.04175C8.51216 16.4688 8.073 16.0296 8.073 15.5C8.073 14.9704 8.51216 14.5313 9.04175 14.5313H18.0834C18.613 14.5313 19.0522 14.9704 19.0522 15.5C19.0522 16.0296 18.613 16.4688 18.0834 16.4688Z"/>
</svg>
